<svg width="42" height="42" viewBox="0 0 42 42" fill="none" xmlns="http://www.w3.org/2000/svg">
<path d="M42 4.5V37.5C42 39.9853 39.9853 42 37.5 42H4.5C2.01469 42 0 39.9853 0 37.5V4.5C0 2.01469 2.01469 0 4.5 0H37.5C39.9853 0 42 2.01469 42 4.5ZM28.5 24.75C27.1348 24.75 25.8916 25.2713 24.9578 26.1254L18.5868 22.3027C18.8044 21.4478 18.8044 20.5521 18.5868 19.6972L24.9578 15.8745C25.8916 16.7287 27.1348 17.25 28.5 17.25C31.3995 17.25 33.75 14.8995 33.75 12C33.75 9.1005 31.3995 6.75 28.5 6.75C25.6005 6.75 23.25 9.1005 23.25 12C23.25 12.4497 23.3067 12.8862 23.4131 13.3028L17.0421 17.1255C16.1084 16.2713 14.8652 15.75 13.5 15.75C10.6005 15.75 8.25 18.1005 8.25 21C8.25 23.8995 10.6005 26.25 13.5 26.25C14.8652 26.25 16.1084 25.7287 17.0422 24.8746L23.4132 28.6973C23.3046 29.123 23.2498 29.5607 23.2501 30.0001C23.2501 32.8996 25.6006 35.2501 28.5001 35.2501C31.3996 35.2501 33.7501 32.8996 33.7501 30.0001C33.75 27.1005 31.3995 24.75 28.5 24.75Z" fill="#E4E7EC"/>
</svg>
