<svg width="44" height="42" viewBox="0 0 44 42" fill="none" xmlns="http://www.w3.org/2000/svg">
<path d="M43.0459 4.5V37.5C43.0459 39.9844 41.0259 42 38.536 42H15.4604C16.3812 40.4625 17.565 38.25 18.0348 36.4406C18.3167 35.3625 19.4724 30.9656 19.4724 30.9656C20.224 32.4 22.4226 33.6094 24.7621 33.6094C31.7242 33.6094 36.7321 27.225 36.7321 19.2938C36.7321 11.6906 30.5122 6 22.5071 6C12.5478 6 7.26746 12.6656 7.26746 19.9313C7.26746 23.3063 9.07142 27.5063 11.9465 28.8469C12.3881 29.0531 12.6136 28.9594 12.7169 28.5375C12.7921 28.2188 13.1867 26.6531 13.3558 25.9313C13.4122 25.6969 13.384 25.5 13.1961 25.275C12.2471 24.1219 11.4767 22.0031 11.4767 20.025C11.4767 14.9438 15.3289 10.0312 21.8964 10.0312C27.562 10.0312 31.5363 13.8844 31.5363 19.3969C31.5363 25.6219 28.3888 29.9344 24.2829 29.9344C22.0186 29.9344 20.3273 28.0687 20.8629 25.7719C21.5112 23.0344 22.7702 20.0813 22.7702 18.1031C22.7702 13.1344 15.6765 13.8188 15.6765 20.4469C15.6765 22.4813 16.3624 23.8688 16.3624 23.8688C13.4122 36.3188 12.9706 36.4781 13.5813 41.925L13.788 42H5.4635C2.97367 42 0.953613 39.9844 0.953613 37.5V4.5C0.953613 2.01562 2.97367 0 5.4635 0H38.536C41.0259 0 43.0459 2.01562 43.0459 4.5Z" fill="#E4E7EC"/>
</svg>
